<svg width="24" height="24" viewBox="0 0 24 24" fill="none" xmlns="http://www.w3.org/2000/svg">
<path d="M16 8.5C17.333 10.278 17.333 13.722 16 15.5M19 5C22.988 8.808 23.012 15.217 19 19M2 14.959V9.04C2 8.466 2.448 8 3 8H6.586C6.71833 7.99953 6.8492 7.97226 6.97071 7.91984C7.09222 7.86742 7.20185 7.79094 7.293 7.695L10.293 4.307C10.923 3.651 12 4.116 12 5.043V18.957C12 19.891 10.91 20.352 10.284 19.683L7.294 16.314C7.20259 16.2153 7.09185 16.1365 6.96867 16.0825C6.84549 16.0285 6.71251 16.0004 6.578 16H3C2.448 16 2 15.534 2 14.959Z" stroke="white" stroke-width="2" stroke-linecap="round" stroke-linejoin="round"/>
</svg>
