<svg width="460" height="512" viewBox="0 0 460 512" fill="none" xmlns="http://www.w3.org/2000/svg">
<path d="M340 396C334.48 396 330 400.48 330 406C330 411.52 334.48 416 340 416C345.52 416 350 411.52 350 406C350 400.48 345.52 396 340 396Z" fill="white"/>
<path d="M364.622 363.663L317.092 347.823L300.029 313.696C315.401 298.05 326.074 277.348 329.673 255.755L331.801 243H350C366.542 243 380 229.542 380 213V150C380 67.29 312.71 0 230 0C147.078 0 80 67.097 80 150V213C80 226.036 88.361 237.152 100 241.28V253C100 269.542 113.458 283 130 283H138.782C143.117 292.417 148.728 301.139 155.556 308.974C156.972 310.602 158.449 312.18 159.962 313.715L142.908 347.823L95.377 363.664C40.112 382.092 0 440.271 0 502C0 507.523 4.477 512 10 512H450C455.522 512 460 507.523 460 502C460 440.271 419.889 382.092 364.622 363.663ZM360 213C360 218.514 355.514 223 350 223H334.738C337.28 203.31 338.974 182.357 339.655 161.72C339.675 161.138 339.691 160.572 339.709 160H360V213ZM110 223C104.486 223 100 218.514 100 213V160H120.298C120.331 161.043 120.366 162.091 120.405 163.146C120.406 163.182 120.408 163.217 120.409 163.253C120.409 163.256 120.409 163.259 120.409 163.262C121.109 183.334 122.781 203.743 125.265 222.999H110V223ZM130 263C124.486 263 120 258.514 120 253V243H128.198L130.326 255.759C130.732 258.184 131.231 260.6 131.808 263H130ZM120.017 140H100.38C105.445 72.979 161.377 20 230 20C298.318 20 354.496 72.972 359.619 140H339.984C339.264 84.773 294.291 40 238.951 40H221.051C165.712 40 120.736 84.773 120.017 140ZM221.05 60H238.95C283.759 60 320.026 96.651 320 141.41C320 144.557 319.975 147.297 319.922 149.79C319.922 149.822 319.921 149.855 319.921 149.888L307.413 148.101C273.433 143.249 241.349 127.207 217.071 102.929C215.195 101.054 212.652 100 210 100C183.144 100 157.436 112.236 140.442 132.908C144.63 92.189 179.053 60 221.05 60ZM152.54 263C147.534 246.347 141.806 197.347 140.54 165.947L153.999 148.001C166.36 131.525 185.591 121.288 206.048 120.113C232.965 145.729 267.787 162.645 304.585 167.899L319.307 170.003C318.323 190.888 316.312 211.846 313.431 231.121C313.43 231.127 313.429 231.134 313.428 231.141C312.512 237.338 311.79 241.326 309.946 252.465C304.65 284.23 280.948 312.955 249.659 320.778C236.782 323.993 223.216 323.992 210.346 320.778C190.809 315.894 172.895 302.376 161.334 283H181.72C185.848 294.639 196.963 303 210 303H230C246.575 303 260 289.576 260 273C260 256.458 246.542 243 230 243H210C196.673 243 185.722 251.608 181.703 263H152.54ZM209.159 341.016C216.018 342.461 223.011 343.2 230 343.2C235.471 343.2 240.943 342.742 246.353 341.854L228.683 360.541L209.159 341.016ZM214.935 375.079L183.217 408.621C174.485 391.907 166.982 374.512 160.828 356.704L172.739 332.882L214.935 375.079ZM285.566 329.494L299.17 356.703C293.006 374.541 285.501 391.942 276.778 408.636L242.83 374.688L285.566 329.494ZM200 273C200 267.479 204.478 263 210 263H230C235.514 263 240 267.486 240 273C240 278.522 235.521 283 230 283H210C204.486 283 200 278.514 200 273ZM20.4 492C24.363 442.461 57.332 397.433 101.702 382.637L143.796 368.609C151.508 389.934 161.062 410.661 172.259 430.349C172.278 430.383 172.296 430.417 172.315 430.45C172.315 430.451 172.316 430.451 172.316 430.452C180.497 444.841 189.705 458.902 199.688 472.251L211.99 492H20.4ZM230 483.086L216.438 461.313C216.286 461.069 216.124 460.832 215.952 460.602C207.854 449.8 200.3 438.503 193.42 426.94L229.083 389.226L266.661 426.804C259.735 438.451 252.155 449.795 244.05 460.6C243.56 461.253 244.255 460.224 230 483.086ZM248.01 492L260.311 472.252C270.338 458.852 279.612 444.678 287.875 430.12C287.925 430.032 287.972 429.942 288.022 429.854C288.028 429.843 288.034 429.833 288.04 429.822C299.095 410.322 308.549 389.775 316.204 368.609L358.297 382.637C402.668 397.433 435.637 442.461 439.6 492H248.01Z" fill="white"/>
<path d="M409.546 451.531C402.863 438.154 393.074 426.27 381.237 417.164C376.859 413.795 370.581 414.614 367.214 418.992C363.846 423.37 364.665 429.648 369.042 433.016C378.496 440.289 386.314 449.782 391.653 460.469C394.126 465.418 400.136 467.41 405.068 464.946C410.008 462.478 412.013 456.472 409.546 451.531Z" fill="white"/>
</svg>
